<svg width="26" height="26" xmlns="http://www.w3.org/2000/svg">
    <defs>
        <linearGradient x1="50%" y1="0%" x2="50%" y2="100%" id="a">
            <stop stop-color="#98D700" offset="0%"/>
            <stop stop-color="#009A53" offset="100%"/>
        </linearGradient>
    </defs>
    <path d="M13.05 0c1.158 0 2.256.57 3.094 1.606.754.933 1.19 1.984 1.605 3.007l.04.1c.113.279.22.542.331.802.21.487.409.95.6 1.403l.132.011c.946.084 1.763.186 2.47.3.56.09 1.05.188 1.479.29 1.431.337 2.177.713 2.562.988l.002.002a.46.46 0 0 1 .186.434l-.181 1.37c-.323 2.403-.717 5.427-1.735 8.17-.144.385-.299.764-.468 1.134a11.225 11.225 0 0 1-7.561 6.088 11.236 11.236 0 0 1-5.127 0 11.234 11.234 0 0 1-7.474-5.933 16.786 16.786 0 0 1-.59-1.43c-.45-1.237-.774-2.529-1.024-3.793C1.059 12.876.859 11.253.67 9.87l-.124-.924a.463.463 0 0 1 .186-.436l.006-.004c.384-.275 1.13-.651 2.561-.989.428-.101.916-.199 1.475-.288a34.652 34.652 0 0 1 2.474-.3c.043-.005.087-.008.131-.012.192-.453.39-.916.6-1.403.112-.26.219-.523.332-.802l.04-.102c.414-1.023.852-2.073 1.605-3.005C10.794.57 11.892 0 13.05 0zm0 2.23c-.636 0-1.125.487-1.36.778a5.36 5.36 0 0 0-.488.726c-.314.552-.564 1.172-.824 1.816-.113.277-.23.565-.352.848l-.158.368a80.72 80.72 0 0 1 3.182-.06c1.163 0 2.22.022 3.181.06l-.157-.368a40.528 40.528 0 0 1-.352-.848c-.26-.644-.511-1.263-.824-1.815a5.29 5.29 0 0 0-.488-.727c-.236-.29-.725-.778-1.36-.778z" fill="url(#a)" fill-rule="nonzero"/>
</svg>
