<svg width="26" height="26" xmlns="http://www.w3.org/2000/svg">
    <g fill-rule="nonzero" fill="none">
        <circle fill="#00B0FF" cx="13.006" cy="12.998" r="12.967"/>
        <path d="M9.48 18.313c.05-.093.218.084.218.084.65.692 1.966 1.14 3.341 1.14 1.376 0 2.7-.448 3.341-1.14 0 0 .17-.168.22-.084.067.101-.026.262-.034.262-.818 1.18-2.067 1.712-3.527 1.712s-2.708-.531-3.526-1.712c0 0-.101-.16-.034-.262zM16.354 7.06a4.607 4.607 0 0 1 4.607 4.403c0 .034 0 .06.05.119v5.146a1.14 1.14 0 0 1-1.139 1.139h-.025a1.14 1.14 0 0 1-1.14-1.139v-5.045a2.31 2.31 0 0 0-2.302-2.295 2.288 2.288 0 0 0-2.295 2.278v4.26c0 .642-.515 1.156-1.156 1.156h-.025a1.152 1.152 0 0 1-1.156-1.156v-4.252A2.31 2.31 0 0 0 9.47 9.38a2.297 2.297 0 0 0-2.295 2.294h-.009v5.037c0 .641-.514 1.156-1.155 1.156h-.026a1.152 1.152 0 0 1-1.155-1.156v-5.205c0-.06 0-.127.008-.178A4.607 4.607 0 0 1 9.437 7.06c1.375 0 2.615.607 3.459 1.56a4.616 4.616 0 0 1 3.46-1.56z" fill="#FFF"/>
    </g>
</svg>
