<svg width="32" height="32" viewBox="0 0 32 32" fill="none" xmlns="http://www.w3.org/2000/svg">
<path d="M25.6284 11.4653V11.4393H23.3533C23.3465 11.4393 23.3408 11.4448 23.3408 11.4516V22.2089C23.3408 22.3392 23.4466 22.445 23.5769 22.445H25.6284V22.419C27.0133 22.2627 28.0808 21.3465 28.0808 20.2396V13.645C28.0808 12.538 27.0133 11.6216 25.6284 11.4653Z" fill="#FDB713"/>
<path d="M4.44824 13.645V20.2396C4.44824 21.3465 5.51577 22.2627 6.90066 22.419V22.445H8.9519C9.08248 22.445 9.18803 22.3394 9.18803 22.2089V11.6755C9.18803 11.5451 9.08248 11.4393 8.9519 11.4393H6.90066V11.4653C5.51577 11.6216 4.44824 12.538 4.44824 13.645Z" fill="#FDB713"/>
<path d="M15.4155 28.9054H13.1777C12.2839 28.9054 11.5061 28.2082 11.4972 27.3144C11.4882 26.4034 12.2129 25.6729 13.1049 25.6729H15.3427C16.2367 25.6729 17.0147 26.3704 17.0235 27.2644C17.0325 28.1753 16.3075 28.9054 15.4155 28.9054Z" fill="#FDB713"/>
<path fill-rule="evenodd" clip-rule="evenodd" d="M19.8041 27.558H21.7167V28.4222H18.5928V27.5934L19.5987 26.5592C19.7167 26.4458 19.836 26.3254 19.9564 26.1979C20.0768 26.0704 20.1607 25.983 20.2079 25.9358C20.3212 25.8177 20.4145 25.689 20.4877 25.5497C20.5609 25.4104 20.5975 25.2699 20.5975 25.1282C20.5975 24.9204 20.5385 24.7766 20.4204 24.6961C20.3023 24.6161 20.104 24.5757 19.8254 24.5757C19.5137 24.5757 19.1878 24.6087 18.8478 24.6749L18.6778 24.7103L18.614 23.8815C19.0957 23.7306 19.5869 23.6548 20.0875 23.6548C20.5739 23.6548 20.96 23.761 21.2457 23.9736C21.5314 24.1861 21.6742 24.5167 21.6742 24.9653C21.6742 25.2345 21.6376 25.4682 21.5644 25.6666C21.4912 25.8649 21.385 26.0456 21.2457 26.2085C21.1064 26.3714 20.921 26.5476 20.6896 26.7362L19.8041 27.558Z" fill="#0A0B0C"/>
<path fill-rule="evenodd" clip-rule="evenodd" d="M25.6411 28.4224H24.5714V27.6786H22.4604V26.8994L23.4309 23.7471H24.6635L23.5301 26.7789H24.5856L24.6564 25.6597L25.6411 25.6314V26.7789H26.0307V27.6786H25.6411V28.4224Z" fill="#0A0B0C"/>
<path fill-rule="evenodd" clip-rule="evenodd" d="M26.4952 19.8058C26.4952 20.4283 25.8194 20.9681 24.9415 21.1083C24.9339 21.1097 24.9266 21.1036 24.9266 21.0958V11.9213C24.9266 11.9135 24.9339 11.9074 24.9415 11.9088C25.8194 12.0491 26.4952 12.5886 26.4952 13.2113V19.8058ZM24.043 21.1315C24.043 21.1383 24.0374 21.144 24.0305 21.144H23.5028C23.4959 21.144 23.4905 21.1383 23.4905 21.1315V11.8857C23.4905 11.8788 23.4959 11.8734 23.5028 11.8734H24.0305C24.0374 11.8734 24.043 11.8788 24.043 11.8857V21.1315ZM7.60289 11.8857V21.1315C7.60289 21.1383 7.59723 21.144 7.59038 21.144H7.06287C7.05791 21.144 7.05626 21.1393 7.05413 21.1352V11.8819C7.05626 11.8779 7.05791 11.8734 7.06287 11.8734H7.59038C7.59723 11.8734 7.60289 11.8788 7.60289 11.8857ZM4.61753 19.8058V13.2113C4.61753 12.5886 5.29357 12.0491 6.17172 11.9088C6.17739 11.9079 6.18046 11.9133 6.18282 11.9182V21.0989C6.18046 21.1038 6.17739 21.1093 6.17172 21.1083C5.29357 20.9681 4.61753 20.4283 4.61753 19.8058ZM12.529 26.0573H14.7958C15.2069 26.0573 15.5408 26.394 15.5363 26.8231C15.5318 27.2361 15.1653 27.5548 14.7524 27.5548H12.4853C12.0742 27.5548 11.7403 27.2181 11.745 26.7891C11.7493 26.3761 12.116 26.0573 12.529 26.0573ZM24.9103 11.0316V11.0181C24.9103 11.012 24.9051 11.008 24.8992 11.007C24.6759 6.41765 20.8978 3.25 15.5566 3.25C10.2156 3.25 6.43737 6.41694 6.21352 11.0056H6.19534C6.18849 11.0056 6.18282 11.0113 6.18282 11.0181V11.0339C4.80762 11.1969 3.75 12.1097 3.75 13.2113V19.8058C3.75 20.9074 4.80762 21.8202 6.18282 21.9829V21.999C6.18282 22.0016 6.18636 22.0018 6.18778 22.004C6.21824 22.825 6.43052 24.5926 7.63571 25.8705C8.45295 26.7367 9.56842 27.2049 10.9493 27.2748C11.1606 27.9452 11.8189 28.4224 12.558 28.4224H14.7958C15.6879 28.4224 16.4126 27.692 16.4036 26.7813C16.3949 25.8873 15.6168 25.1898 14.7231 25.1898H12.4853C11.7372 25.1898 11.1087 25.7041 10.9299 26.407C9.81092 26.3376 8.916 25.961 8.27066 25.2793C7.28412 24.2363 7.09168 22.7279 7.05791 22.0113H8.2343C8.36464 22.0113 8.47043 21.9057 8.47043 21.7751V11.2417C8.47043 11.1114 8.36464 11.0056 8.2343 11.0056H7.08152C7.31883 6.2526 11.4553 4.11777 15.5566 4.11777C19.6574 4.11777 23.7937 6.2526 24.0312 11.0056H22.8591C22.7285 11.0056 22.623 11.1114 22.623 11.2417V21.7751C22.623 21.9057 22.7285 22.0113 22.8591 22.0113H24.8981C24.9049 22.0113 24.9103 22.0058 24.9103 21.999V21.9853C26.2952 21.829 27.3628 20.9128 27.3628 19.8058V13.2113C27.3628 12.1043 26.2952 11.1879 24.9103 11.0316Z" fill="#0A0B0C"/>
</svg>
