<svg width="32" height="32" viewBox="0 0 32 32" fill="none" xmlns="http://www.w3.org/2000/svg">
<path d="M17.0864 9.88965C12.8699 9.88965 9.43945 13.3201 9.43945 17.5366V26.1884H14.7341C14.7341 27.4875 15.7873 28.5407 17.0864 28.5407C18.3856 28.5407 19.4387 27.4875 19.4387 26.1884H24.7332V17.5366C24.7332 13.3201 21.303 9.88965 17.0864 9.88965Z" fill="#FDB713"/>
<path fill-rule="evenodd" clip-rule="evenodd" d="M27.6718 12.5832C27.581 12.459 27.4338 12.4592 27.3435 12.5849C27.2535 12.7105 27.254 12.914 27.3447 13.0387C28.3724 14.4503 28.3784 16.7549 27.3582 18.1766C27.3145 18.2375 27.2906 18.318 27.2908 18.404C27.2909 18.4897 27.3153 18.57 27.3594 18.6304C27.3771 18.6548 27.3969 18.6744 27.4186 18.6895C27.4507 18.7119 27.4866 18.7239 27.5236 18.7237C27.5856 18.7235 27.6438 18.6897 27.6875 18.629C28.8884 16.9561 28.8812 14.2439 27.6718 12.5832Z" fill="#0A0B0C"/>
<path fill-rule="evenodd" clip-rule="evenodd" d="M31.6893 15.592C31.6827 13.7549 30.9611 12.0305 29.6575 10.736C29.5316 10.6113 29.3281 10.6123 29.2034 10.7377C29.0787 10.8631 29.0794 11.0668 29.205 11.1915C30.3871 12.3651 31.0414 13.9287 31.0475 15.5943C31.0534 17.2597 30.4105 18.8281 29.2369 20.0102C29.1765 20.0711 29.1434 20.1518 29.1436 20.2373C29.1441 20.3233 29.1776 20.4038 29.2386 20.464C29.2629 20.4883 29.2905 20.5079 29.3203 20.523C29.3649 20.5455 29.4142 20.5575 29.4657 20.5573C29.5514 20.557 29.632 20.5233 29.6924 20.4626C30.9869 19.1587 31.6962 17.429 31.6893 15.592Z" fill="#0A0B0C"/>
<path fill-rule="evenodd" clip-rule="evenodd" d="M4.01621 12.5832C4.10703 12.459 4.25419 12.4592 4.34451 12.5849C4.43448 12.7105 4.43396 12.914 4.34331 13.0387C3.31557 14.4503 3.30959 16.7549 4.32982 18.1766C4.37353 18.2375 4.39743 18.318 4.39726 18.404C4.39709 18.4897 4.37267 18.57 4.32863 18.6304C4.31087 18.6548 4.29107 18.6744 4.26939 18.6895C4.23729 18.7119 4.20144 18.7239 4.16439 18.7237C4.10242 18.7235 4.04421 18.6897 4.0005 18.629C2.79965 16.9561 2.80682 14.2439 4.01621 12.5832Z" fill="#0A0B0C"/>
<path fill-rule="evenodd" clip-rule="evenodd" d="M0.500049 15.592C0.506661 13.7549 1.22827 12.0305 2.53193 10.736C2.65778 10.6113 2.86132 10.6123 2.986 10.7377C3.11067 10.8631 3.10997 11.0668 2.98435 11.1915C1.80229 12.3651 1.14798 13.9287 1.14184 15.5943C1.13594 17.2597 1.77892 18.8281 2.95247 20.0102C3.01292 20.0711 3.04598 20.1518 3.04574 20.2373C3.04527 20.3233 3.01174 20.4038 2.95082 20.464C2.9265 20.4883 2.89887 20.5079 2.86912 20.523C2.82449 20.5455 2.77514 20.5575 2.72366 20.5573C2.63795 20.557 2.55743 20.5233 2.49698 20.4626C1.20253 19.1587 0.493201 17.429 0.500049 15.592Z" fill="#0A0B0C"/>
<path fill-rule="evenodd" clip-rule="evenodd" d="M16.2104 12.3336C15.9943 12.3336 15.7979 12.5303 15.7979 12.7461C15.7979 12.9622 15.9943 13.1589 16.2104 13.1589C18.1532 13.1589 19.7339 14.7393 19.7339 16.6824V21.1374C19.7339 21.3535 19.9303 21.5501 20.1464 21.5501C20.3622 21.5501 20.5591 21.3535 20.5591 21.1374V16.6394C20.5591 14.2651 18.6085 12.3336 16.2104 12.3336Z" fill="#0A0B0C"/>
<path fill-rule="evenodd" clip-rule="evenodd" d="M23.4539 24.8342H8.96721V16.6391C8.96721 12.645 12.2166 9.39569 16.2107 9.39569C20.2045 9.39569 23.4539 12.645 23.4539 16.6391V24.8342ZM6.60783 24.8342C6.39201 24.8342 6.19531 25.0309 6.19531 25.2469C6.19531 25.463 6.39201 25.6597 6.60783 25.6597H14.0168L14.0244 25.888C14.0628 27.05 15.0437 27.9952 16.2107 27.9952C17.3774 27.9952 18.358 27.05 18.3967 25.888L18.4043 25.6597H25.8133C26.0291 25.6597 26.2258 25.463 26.2258 25.2472C26.2258 25.0309 26.0291 24.8342 25.8133 24.8342H24.2794V16.6391C24.2794 12.4332 21.0128 8.90785 16.8425 8.61293L16.6232 8.59734V3.66275C16.6232 3.44669 16.4265 3.25 16.2107 3.25C15.9946 3.25 15.7981 3.44669 15.7981 3.66275V8.59522L15.5809 8.61269C11.3398 8.95555 8.14171 12.4061 8.14171 16.6391V24.8342H6.60783Z" fill="#0A0B0C"/>
<path fill-rule="evenodd" clip-rule="evenodd" d="M20.2328 22.1361C20.1984 22.1463 20.1622 22.151 20.1259 22.15C20.0343 22.1477 19.9478 22.109 19.8848 22.0426L18.0704 20.1245C17.9396 19.9862 17.9455 19.7678 18.0841 19.6369C18.2218 19.5059 18.4404 19.512 18.5715 19.6502L20.149 21.3179L21.8161 19.7406C21.9545 19.6091 22.1726 19.6155 22.3035 19.7538C22.4345 19.8922 22.4284 20.1106 22.2902 20.2412L20.3724 22.0556C20.3325 22.0934 20.2846 22.1208 20.2328 22.1361Z" fill="#0A0B0C"/>
</svg>
