<svg width="64" height="64" viewBox="0 0 64 64" fill="none" xmlns="http://www.w3.org/2000/svg">
<rect width="64" height="64" rx="24" fill="url(#paint0_linear_312_1143)"/>
<rect width="64" height="64" rx="24" fill="url(#paint1_angular_312_1143)"/>
<path d="M27.4736 19.071C27.4736 16.576 29.5042 14.5455 31.9991 14.5455C34.494 14.5455 36.5246 16.576 36.5246 19.071V25.5351V34.1018H40.4034V25.5351V19.071C40.4034 14.4367 36.6334 10.6667 31.9991 10.6667C27.3648 10.6667 23.5948 14.4367 23.5948 19.071V21.172H27.4736V19.071Z" fill="#FDB713"/>
<path d="M27.4736 19.071C27.4736 16.576 29.5042 14.5455 31.9991 14.5455C34.494 14.5455 36.5246 16.576 36.5246 19.071V25.5351V34.1018H40.4034V25.5351V19.071C40.4034 14.4367 36.6334 10.6667 31.9991 10.6667C27.3648 10.6667 23.5948 14.4367 23.5948 19.071V21.172H27.4736V19.071Z" fill="black" fill-opacity="0.08"/>
<path d="M27.4736 19.071C27.4736 16.576 29.5042 14.5455 31.9991 14.5455C34.494 14.5455 36.5246 16.576 36.5246 19.071V25.5351V34.1018H40.4034V25.5351V19.071C40.4034 14.4367 36.6334 10.6667 31.9991 10.6667C27.3648 10.6667 23.5948 14.4367 23.5948 19.071V21.172H27.4736V19.071Z" fill="#E3A107"/>
<path d="M36.5246 44.929C36.5246 47.424 34.494 49.4546 31.9991 49.4546C29.5042 49.4546 27.4736 47.424 27.4736 44.929V38.4649V29.8982H23.5948V38.4649V44.929C23.5948 49.5634 27.3648 53.3333 31.9991 53.3333C36.6334 53.3333 40.4034 49.5634 40.4034 44.929V42.828H36.5246V44.929Z" fill="#FDB713"/>
<path d="M36.5246 44.929C36.5246 47.424 34.494 49.4546 31.9991 49.4546C29.5042 49.4546 27.4736 47.424 27.4736 44.929V38.4649V29.8982H23.5948V38.4649V44.929C23.5948 49.5634 27.3648 53.3333 31.9991 53.3333C36.6334 53.3333 40.4034 49.5634 40.4034 44.929V42.828H36.5246V44.929Z" fill="black" fill-opacity="0.08"/>
<path d="M36.5246 44.929C36.5246 47.424 34.494 49.4546 31.9991 49.4546C29.5042 49.4546 27.4736 47.424 27.4736 44.929V38.4649V29.8982H23.5948V38.4649V44.929C23.5948 49.5634 27.3648 53.3333 31.9991 53.3333C36.6334 53.3333 40.4034 49.5634 40.4034 44.929V42.828H36.5246V44.929Z" fill="#E3A107"/>
<path d="M44.929 23.5949H42.828V27.4737H44.929C47.424 27.4737 49.4546 29.5043 49.4546 31.9992C49.4546 34.4942 47.424 36.5247 44.929 36.5247H38.4649H29.8982V40.4035H38.4649H44.929C49.5634 40.4035 53.3333 36.6336 53.3333 31.9992C53.3333 27.3649 49.5618 23.5949 44.929 23.5949Z" fill="#FDB713"/>
<path d="M44.929 23.5949H42.828V27.4737H44.929C47.424 27.4737 49.4546 29.5043 49.4546 31.9992C49.4546 34.4942 47.424 36.5247 44.929 36.5247H38.4649H29.8982V40.4035H38.4649H44.929C49.5634 40.4035 53.3333 36.6336 53.3333 31.9992C53.3333 27.3649 49.5618 23.5949 44.929 23.5949Z" fill="black" fill-opacity="0.08"/>
<path d="M44.929 23.5949H42.828V27.4737H44.929C47.424 27.4737 49.4546 29.5043 49.4546 31.9992C49.4546 34.4942 47.424 36.5247 44.929 36.5247H38.4649H29.8982V40.4035H38.4649H44.929C49.5634 40.4035 53.3333 36.6336 53.3333 31.9992C53.3333 27.3649 49.5618 23.5949 44.929 23.5949Z" fill="#E3A107"/>
<path d="M14.5455 31.9992C14.5455 29.5043 16.576 27.4737 19.071 27.4737H25.5351H34.1018V23.5949H25.5351H19.071C14.4366 23.5949 10.6667 27.3649 10.6667 31.9992C10.6667 36.6336 14.4366 40.4035 19.071 40.4035H21.172V36.5247H19.071C16.576 36.5247 14.5455 34.4942 14.5455 31.9992Z" fill="#FDB713"/>
<path d="M14.5455 31.9992C14.5455 29.5043 16.576 27.4737 19.071 27.4737H25.5351H34.1018V23.5949H25.5351H19.071C14.4366 23.5949 10.6667 27.3649 10.6667 31.9992C10.6667 36.6336 14.4366 40.4035 19.071 40.4035H21.172V36.5247H19.071C16.576 36.5247 14.5455 34.4942 14.5455 31.9992Z" fill="black" fill-opacity="0.08"/>
<path d="M14.5455 31.9992C14.5455 29.5043 16.576 27.4737 19.071 27.4737H25.5351H34.1018V23.5949H25.5351H19.071C14.4366 23.5949 10.6667 27.3649 10.6667 31.9992C10.6667 36.6336 14.4366 40.4035 19.071 40.4035H21.172V36.5247H19.071C16.576 36.5247 14.5455 34.4942 14.5455 31.9992Z" fill="#E3A107"/>
<defs>
<linearGradient id="paint0_linear_312_1143" x1="0" y1="0" x2="0" y2="64" gradientUnits="userSpaceOnUse">
<stop offset="0.244792" stop-color="#FFE8B3"/>
<stop offset="1" stop-color="#FFB300"/>
</linearGradient>
<radialGradient id="paint1_angular_312_1143" cx="0" cy="0" r="1" gradientUnits="userSpaceOnUse" gradientTransform="translate(32 32) rotate(-180) scale(32 36.7622)">
<stop stop-color="white" stop-opacity="0.3"/>
<stop offset="0.598958" stop-color="white" stop-opacity="0"/>
</radialGradient>
</defs>
</svg>
