<svg width="32" height="32" viewBox="0 0 32 32" fill="none" xmlns="http://www.w3.org/2000/svg">
<path d="M21.5871 21.1379C21.3784 21.1062 21.1833 21.2489 21.151 21.4574C20.3685 26.5242 18.4825 29.9289 16.4577 29.9289C13.7125 29.9289 11.3933 23.7535 11.3933 16.4441C11.3933 14.7131 11.5179 13.0267 11.7642 11.4323C11.7966 11.2238 11.6535 11.0286 11.445 10.9964C11.2365 10.9643 11.0412 11.1074 11.0091 11.3159C10.7567 12.9485 10.6289 14.6737 10.6289 16.4441C10.6289 24.4342 13.1892 30.693 16.4577 30.693C18.912 30.693 21.0509 27.1136 21.9064 21.5738C21.9385 21.365 21.7954 21.17 21.5871 21.1379Z" fill="#FDB713"/>
<path d="M16.4575 2.19531C14.8108 2.19531 13.284 3.80594 12.198 6.64301L11.2731 4.82648C11.177 4.63852 10.9466 4.56344 10.7591 4.65978C10.5711 4.75541 10.4963 4.98563 10.5919 5.17382L11.9194 7.78067C11.9267 7.7946 11.9359 7.80712 11.9447 7.81987C11.9496 7.82743 11.9536 7.83569 11.9593 7.84277C11.968 7.85387 11.9784 7.86332 11.9883 7.87347C11.9959 7.88103 12.0025 7.88953 12.0108 7.89661C12.0221 7.90653 12.0349 7.91408 12.0474 7.92259C12.0556 7.92825 12.0632 7.93486 12.0719 7.93982C12.0941 7.95234 12.1175 7.96273 12.1421 7.97076C12.1773 7.98209 12.2129 7.98634 12.2481 7.98728C12.2521 7.98752 12.2561 7.98917 12.2601 7.98917C12.2646 7.98917 12.2689 7.98776 12.2734 7.98776C12.2932 7.98705 12.3123 7.98445 12.3314 7.98067C12.3395 7.97926 12.3473 7.97831 12.3553 7.97642C12.3829 7.9691 12.4101 7.95966 12.4353 7.94667L15.0405 6.61963C15.2283 6.52424 15.3031 6.29378 15.2072 6.10582C15.1116 5.91786 14.8816 5.84277 14.6934 5.93911L12.9447 6.82979C13.8956 4.39012 15.1773 2.95966 16.4575 2.95966C19.2028 2.95966 21.522 9.13486 21.522 16.4444C21.522 16.8163 21.5163 17.1852 21.505 17.55C21.4984 17.7608 21.6639 17.9375 21.875 17.9438C21.879 17.9441 21.883 17.9441 21.887 17.9441C22.0925 17.9441 22.2623 17.7807 22.2689 17.5738C22.2804 17.2015 22.2863 16.8246 22.2863 16.4444C22.2863 8.45411 19.726 2.19531 16.4575 2.19531Z" fill="#FDB713"/>
<path d="M30.7067 16.2081C30.7067 13.753 27.1265 11.6142 21.5858 10.7594C21.3766 10.7282 21.182 10.8702 21.1499 11.0787C21.1176 11.2874 21.2607 11.4824 21.4694 11.5146C26.5374 12.2968 29.9424 14.1828 29.9424 16.2081C29.9424 18.9535 23.7672 21.2728 16.4578 21.2728C16.2172 21.2728 15.9761 21.2692 15.7353 21.2643L17.2028 19.9294C17.3589 19.7875 17.3705 19.5457 17.2283 19.3899C17.0864 19.2338 16.8448 19.2218 16.6885 19.3644L14.5247 21.3327C14.5112 21.345 14.5003 21.3587 14.4892 21.3722C14.4847 21.3774 14.4798 21.3818 14.4758 21.3873C14.4651 21.4012 14.4571 21.4163 14.4489 21.4312C14.4448 21.4383 14.4401 21.4444 14.4368 21.4517C14.43 21.4661 14.4252 21.4813 14.4203 21.4961C14.4175 21.5051 14.4134 21.5136 14.4111 21.5228C14.4061 21.5431 14.4035 21.5637 14.4019 21.5844C14.4014 21.5889 14.4002 21.5927 14.4 21.5972C14.3997 21.5989 14.4002 21.6005 14.4002 21.6022C14.3993 21.6258 14.4005 21.6494 14.404 21.6728C14.4054 21.6815 14.4082 21.6898 14.4104 21.6983C14.4137 21.7141 14.417 21.7299 14.4224 21.7452C14.4257 21.7545 14.4307 21.7627 14.4347 21.7715C14.4408 21.7854 14.4465 21.7996 14.4545 21.8128C14.463 21.8265 14.4734 21.8388 14.4833 21.8515C14.4888 21.8584 14.493 21.8659 14.4989 21.8725L16.4675 24.0366C16.5428 24.1193 16.6463 24.1615 16.7504 24.1615C16.842 24.1615 16.9341 24.1287 17.0073 24.0619C17.1636 23.9202 17.1749 23.6784 17.0328 23.5223L15.6737 22.0279C15.9348 22.0336 16.1967 22.0371 16.4578 22.0371C24.4479 22.0371 30.7067 19.4768 30.7067 16.2081Z" fill="#FDB713"/>
<path d="M11.388 21.6611C11.3686 21.6611 11.349 21.6594 11.3292 21.6566C5.78866 20.8016 2.2085 18.663 2.2085 16.208C2.2085 12.9395 8.46753 10.3792 16.4576 10.3792C17.2463 10.3792 18.0349 10.4051 18.8009 10.4557C19.0113 10.4698 19.1707 10.6516 19.157 10.8625C19.1426 11.0729 18.9639 11.2266 18.7502 11.2186C18.0007 11.1688 17.2295 11.1435 16.4576 11.1435C9.14805 11.1435 2.97284 13.4627 2.97284 16.208C2.97284 18.233 6.3778 20.1192 11.4458 20.9012C11.6543 20.9333 11.7974 21.1286 11.765 21.3374C11.736 21.526 11.5733 21.6611 11.388 21.6611Z" fill="#FDB713"/>
<path fill-rule="evenodd" clip-rule="evenodd" d="M2.26434 15.4991C2.26434 13.4875 5.58194 11.706 10.2301 10.8968C10.028 12.3735 9.92031 13.9161 9.92031 15.4991C9.92031 17.1199 10.0273 18.6675 10.2223 20.1081C5.44026 19.2807 2.26434 17.455 2.26434 15.4991ZM29.998 15.4991C29.998 13.0859 26.5375 10.9794 21.1574 10.096C20.3033 4.86063 18.2308 1.25 15.7491 1.25C14.1024 1.25 12.5756 2.86063 11.4896 5.69793L10.5645 3.8814C10.4686 3.69345 10.2381 3.61836 10.0506 3.71446C9.86246 3.81009 9.7876 4.04032 9.88347 4.22851L11.211 6.83536C11.2181 6.84929 11.2273 6.86181 11.236 6.87456C11.2412 6.88211 11.2452 6.89038 11.2506 6.89746C11.2592 6.90832 11.2693 6.9173 11.2787 6.92698C11.2865 6.93524 11.2936 6.94398 11.3024 6.95153C11.313 6.96074 11.3253 6.96806 11.3368 6.97586C11.3458 6.98223 11.3541 6.98932 11.3635 6.99451C11.3857 7.00702 11.4091 7.01741 11.4334 7.02544C11.4688 7.03678 11.5042 7.04103 11.5397 7.04221C11.5437 7.04221 11.5475 7.0441 11.5515 7.0441C11.556 7.0441 11.5602 7.04268 11.5647 7.04244C11.5845 7.04174 11.6039 7.03914 11.6233 7.0356C11.6311 7.03394 11.6388 7.03324 11.6466 7.03111C11.6745 7.02403 11.7014 7.01434 11.7269 7.00136L14.3319 5.67456C14.5196 5.57893 14.5947 5.3487 14.4988 5.16051C14.403 4.97255 14.1732 4.89746 13.9848 4.9938L12.2362 5.88447C13.1871 3.44481 14.4688 2.01434 15.7491 2.01434C18.4941 2.01434 20.8136 8.18955 20.8136 15.4991C20.8136 15.8713 20.8077 16.2398 20.7963 16.6049C20.79 16.8158 20.9553 16.9921 21.1664 16.9985C21.1704 16.9988 21.1744 16.9988 21.1786 16.9988C21.3841 16.9988 21.5536 16.8354 21.5602 16.6287C21.572 16.2564 21.5777 15.8793 21.5777 15.4991C21.5777 13.8783 21.471 12.3308 21.2757 10.8904C26.0577 11.7178 29.2336 13.5433 29.2336 15.4991C29.2336 18.2446 23.0584 20.5638 15.7491 20.5638C15.5085 20.5638 15.2672 20.5603 15.0266 20.5553L16.4941 19.2205C16.6502 19.0786 16.6615 18.8368 16.5196 18.6809C16.3777 18.5249 16.1359 18.5128 15.9798 18.6554L13.8157 20.6238C13.8025 20.6361 13.7916 20.6498 13.7803 20.6632C13.776 20.6684 13.7708 20.6729 13.7668 20.6783C13.7564 20.6923 13.7484 20.7074 13.7399 20.7223C13.7361 20.7291 13.7314 20.7355 13.7279 20.7428C13.721 20.7572 13.7165 20.7723 13.7116 20.7872C13.7087 20.7962 13.7047 20.8047 13.7024 20.8139C13.6972 20.8342 13.6948 20.8547 13.6929 20.8755C13.6927 20.8798 13.6913 20.8838 13.691 20.888C13.691 20.8899 13.6915 20.8916 13.6915 20.8932C13.6906 20.9168 13.6917 20.9404 13.6953 20.9638C13.6965 20.9726 13.6995 20.9808 13.7014 20.9893C13.705 21.0051 13.708 21.021 13.7137 21.0363C13.717 21.0455 13.722 21.0538 13.726 21.0625C13.7321 21.0764 13.7378 21.0906 13.7458 21.1038C13.7541 21.1175 13.7645 21.1298 13.7746 21.1426C13.78 21.1494 13.7841 21.157 13.7902 21.1636L15.7588 23.3277C15.8341 23.4103 15.9375 23.4526 16.0414 23.4526C16.1333 23.4526 16.2254 23.4198 16.2986 23.353C16.4547 23.2113 16.466 22.9692 16.3241 22.8134L14.9647 21.3187C15.2261 21.3244 15.488 21.3282 15.7491 21.3282C17.3699 21.3282 18.9175 21.2212 20.3579 21.0259C19.5302 25.8077 17.7045 28.9839 15.7491 28.9839C13.0037 28.9839 10.6844 22.8084 10.6844 15.4991C10.6844 13.8691 10.7992 12.2816 11.0178 10.7704C12.4981 10.5546 14.0939 10.4347 15.7491 10.4347C16.521 10.4347 17.2922 10.4599 18.0417 10.5097C18.2554 10.518 18.4341 10.3643 18.4485 10.1537C18.4622 9.9428 18.3028 9.76098 18.0924 9.74705C17.3262 9.69628 16.5375 9.67054 15.7491 9.67054C7.7588 9.67054 1.5 12.2309 1.5 15.4991C1.5 17.9123 4.96045 20.0191 10.3406 20.9022C11.1949 26.1374 13.2672 29.748 15.7491 29.748C18.1616 29.748 20.2684 26.2875 21.1519 20.9076C26.3874 20.0533 29.998 17.9811 29.998 15.4991Z" fill="#0A0B0C"/>
</svg>
