<svg width="32" height="32" viewBox="0 0 32 32" fill="none" xmlns="http://www.w3.org/2000/svg">
<path d="M28.9865 24.432H4.79498C3.88211 24.432 3.14209 23.692 3.14209 22.7791V6.57489C3.14209 5.66202 3.88211 4.922 4.79498 4.922H28.9865C29.8994 4.922 30.6394 5.66202 30.6394 6.57489V22.7791C30.6394 23.692 29.8994 24.432 28.9865 24.432Z" fill="#FDB713"/>
<path fill-rule="evenodd" clip-rule="evenodd" d="M16.2724 14.6768H15.0516C14.4504 14.6768 13.9614 14.1878 13.9614 13.5866C13.9614 13.4416 14.0788 13.324 14.224 13.324C14.3692 13.324 14.4866 13.4416 14.4866 13.5866C14.4866 13.8983 14.7399 14.1517 15.0516 14.1517H16.2724C16.5841 14.1517 16.8375 13.8983 16.8375 13.5866V13.0988C16.8375 12.7871 16.5841 12.5335 16.2724 12.5335H15.0516C14.4504 12.5335 13.9614 12.0445 13.9614 11.4433V10.9554C13.9614 10.3543 14.4504 9.86523 15.0516 9.86523H16.2724C16.8736 9.86523 17.3626 10.3543 17.3626 10.9554C17.3626 11.1007 17.245 11.218 17.1 11.218C16.9548 11.218 16.8375 11.1007 16.8375 10.9554C16.8375 10.6437 16.5841 10.3904 16.2724 10.3904H15.0516C14.7399 10.3904 14.4866 10.6437 14.4866 10.9554V11.4433C14.4866 11.755 14.7399 12.0083 15.0516 12.0083H16.2724C16.8736 12.0083 17.3626 12.4973 17.3626 13.0988V13.5866C17.3626 14.1878 16.8736 14.6768 16.2724 14.6768Z" fill="#0A0B0C"/>
<path fill-rule="evenodd" clip-rule="evenodd" d="M15.4546 9.77112C15.4241 9.77112 15.3994 9.70678 15.3994 9.62744V9.16602C15.3994 9.08669 15.4241 9.02234 15.4546 9.02234C15.4851 9.02234 15.5097 9.08669 15.5097 9.16602V9.62744C15.5097 9.70678 15.4851 9.77112 15.4546 9.77112Z" fill="#0A0B0C"/>
<path fill-rule="evenodd" clip-rule="evenodd" d="M15.4546 14.9003C15.4241 14.9003 15.3994 14.8359 15.3994 14.7566V14.2954C15.3994 14.2159 15.4241 14.1517 15.4546 14.1517C15.4851 14.1517 15.5097 14.2159 15.5097 14.2954V14.7566C15.5097 14.8359 15.4851 14.9003 15.4546 14.9003Z" fill="#0A0B0C"/>
<path fill-rule="evenodd" clip-rule="evenodd" d="M10.9843 15.688C10.9 15.688 10.8171 15.6476 10.7663 15.5723C10.1066 14.5956 9.75781 13.4542 9.75781 12.2712C9.75781 9.01546 12.4065 6.36682 15.6619 6.36682C16.3557 6.36682 17.0357 6.4863 17.6827 6.72172C17.819 6.77131 17.8893 6.92196 17.8395 7.0582C17.7902 7.19445 17.6388 7.26505 17.503 7.21499C16.9137 7.00082 16.2943 6.89197 15.6619 6.89197C12.6959 6.89197 10.283 9.30496 10.283 12.2712C10.283 13.3491 10.6008 14.389 11.2017 15.2785C11.2827 15.3985 11.2513 15.5619 11.1309 15.6431C11.086 15.6733 11.0348 15.688 10.9843 15.688Z" fill="#0A0B0C"/>
<path fill-rule="evenodd" clip-rule="evenodd" d="M17.0469 7.00064L18.0246 6.91367L17.4535 6.18262L17.0469 7.00064Z" fill="#0A0B0C"/>
<path fill-rule="evenodd" clip-rule="evenodd" d="M15.6616 18.1755C14.7456 18.1755 13.867 17.9713 13.0507 17.5682C12.9208 17.5042 12.8672 17.3467 12.9315 17.2166C12.9957 17.0868 13.1527 17.0334 13.2831 17.0976C14.0266 17.4643 14.8269 17.6504 15.6616 17.6504C18.6276 17.6504 21.0406 15.2372 21.0406 12.2714C21.0406 10.9944 20.5855 9.75689 19.7593 8.78664C19.6656 8.67613 19.6788 8.51061 19.7891 8.41639C19.8996 8.32265 20.0651 8.3354 20.1593 8.44615C21.0661 9.51155 21.5657 10.87 21.5657 12.2714C21.5657 15.5269 18.9171 18.1755 15.6616 18.1755Z" fill="#0A0B0C"/>
<path fill-rule="evenodd" clip-rule="evenodd" d="M13.1956 16.7489L12.209 16.7328L12.6863 17.4891L13.1956 16.7489Z" fill="#0A0B0C"/>
<path fill-rule="evenodd" clip-rule="evenodd" d="M27.7576 23.01H3.56612C2.88253 23.01 2.32645 22.454 2.32645 21.7704V21.0693H28.9973V21.7704C28.9973 22.454 28.4412 23.01 27.7576 23.01ZM3.56612 4.32645H27.7576C28.4412 4.32645 28.9973 4.88253 28.9973 5.56612V20.2429H2.32645V5.56612C2.32645 4.88253 2.88253 4.32645 3.56612 4.32645ZM21.3822 26.717C21.4037 26.717 21.4249 26.726 21.4362 26.7401C21.6438 26.9999 21.7005 27.2634 21.5952 27.4823C21.5059 27.6679 21.3161 27.7878 21.1116 27.7878H9.9477C9.92597 27.7878 9.90472 27.7786 9.89339 27.7645C9.68536 27.5052 9.62869 27.2419 9.734 27.0228C9.82302 26.837 10.0129 26.717 10.2174 26.717H14.8601V23.8516H16.7323V26.717H21.3822ZM27.7576 3.5H3.56612C2.4268 3.5 1.5 4.4268 1.5 5.56612V21.7704C1.5 22.9097 2.4268 23.8365 3.56612 23.8365H14.0336V25.8906H10.2174C9.13731 25.8906 8.34605 27.1557 9.24852 28.2813C9.41783 28.4927 9.67686 28.6143 9.9477 28.6143H21.1116C22.1916 28.6143 22.9826 27.3503 22.0816 26.224C21.9123 26.0122 21.653 25.8906 21.3822 25.8906H17.5588V23.8365H27.7576C28.8969 23.8365 29.8237 22.9097 29.8237 21.7704V5.56612C29.8237 4.4268 28.8969 3.5 27.7576 3.5Z" fill="#0A0B0C"/>
</svg>
