<svg width="32" height="32" viewBox="0 0 32 32" fill="none" xmlns="http://www.w3.org/2000/svg">
<path d="M10.3723 15.5585H8.70686C7.88679 15.5585 7.21973 14.8912 7.21973 14.0714C7.21973 13.8735 7.37982 13.7132 7.57793 13.7132C7.77604 13.7132 7.93614 13.8735 7.93614 14.0714C7.93614 14.4964 8.28159 14.8421 8.70686 14.8421H10.3723C10.7973 14.8421 11.143 14.4964 11.143 14.0714V13.4057C11.143 12.9807 10.7973 12.6345 10.3723 12.6345H8.70686C7.88679 12.6345 7.21973 11.9677 7.21973 11.1476V10.482C7.21973 9.66193 7.88679 8.99487 8.70686 8.99487H10.3723C11.1923 8.99487 11.8594 9.66193 11.8594 10.482C11.8594 10.6799 11.6993 10.84 11.5012 10.84C11.3031 10.84 11.143 10.6799 11.143 10.482C11.143 10.0567 10.7973 9.71128 10.3723 9.71128H8.70686C8.28159 9.71128 7.93614 10.0567 7.93614 10.482V11.1476C7.93614 11.5727 8.28159 11.9184 8.70686 11.9184H10.3723C11.1923 11.9184 11.8594 12.5852 11.8594 13.4057V14.0714C11.8594 14.8912 11.1923 15.5585 10.3723 15.5585Z" fill="#FDB713"/>
<path d="M9.28378 9.23806C9.22709 9.23806 9.18115 9.11838 9.18115 8.97067V8.11211C9.18115 7.96423 9.22709 7.84473 9.28378 7.84473C9.34047 7.84473 9.3864 7.96423 9.3864 8.11211V8.97067C9.3864 9.11838 9.34047 9.23806 9.28378 9.23806Z" fill="#FDB713"/>
<path d="M9.28378 16.2351C9.22709 16.2351 9.18115 16.1155 9.18115 15.9678V15.1095C9.18115 14.9618 9.22709 14.8422 9.28378 14.8422C9.34047 14.8422 9.3864 14.9618 9.3864 15.1095V15.9678C9.3864 16.1155 9.34047 16.2351 9.28378 16.2351Z" fill="#FDB713"/>
<path d="M17.4603 15.7756H15.3723C15.1647 15.7756 14.9966 15.6075 14.9966 15.3999V13.3118C14.9966 13.1043 15.1647 12.9362 15.3723 12.9362H17.4603C17.6679 12.9362 17.8363 13.1043 17.8363 13.3118V15.3999C17.8363 15.6075 17.6679 15.7756 17.4603 15.7756Z" fill="#FDB713"/>
<path d="M21.3466 15.7756H19.2585C19.0509 15.7756 18.8828 15.6075 18.8828 15.3999V13.3118C18.8828 13.1043 19.0509 12.9362 19.2585 12.9362H21.3466C21.5541 12.9362 21.7222 13.1043 21.7222 13.3118V15.3999C21.7222 15.6075 21.5541 15.7756 21.3466 15.7756Z" fill="#FDB713"/>
<path d="M25.2328 15.7756H23.1447C22.9372 15.7756 22.769 15.6075 22.769 15.3999V13.3118C22.769 13.1043 22.9372 12.9362 23.1447 12.9362H25.2328C25.4404 12.9362 25.6087 13.1043 25.6087 13.3118V15.3999C25.6087 15.6075 25.4404 15.7756 25.2328 15.7756Z" fill="#FDB713"/>
<path d="M17.4603 21.1602H15.3723C15.1647 21.1602 14.9966 20.9921 14.9966 20.7846V18.6965C14.9966 18.4889 15.1647 18.3208 15.3723 18.3208H17.4603C17.6679 18.3208 17.8363 18.4889 17.8363 18.6965V20.7846C17.8363 20.9921 17.6679 21.1602 17.4603 21.1602Z" fill="#FDB713"/>
<path d="M21.3466 21.1602H19.2585C19.0509 21.1602 18.8828 20.9921 18.8828 20.7846V18.6965C18.8828 18.4889 19.0509 18.3208 19.2585 18.3208H21.3466C21.5541 18.3208 21.7222 18.4889 21.7222 18.6965V20.7846C21.7222 20.9921 21.5541 21.1602 21.3466 21.1602Z" fill="#FDB713"/>
<path d="M9.61366 21.1602H7.52558C7.31803 21.1602 7.1499 20.9921 7.1499 20.7846V18.6965C7.1499 18.4889 7.31803 18.3208 7.52558 18.3208H9.61366C9.82121 18.3208 9.98957 18.4889 9.98957 18.6965V20.7846C9.98957 20.9921 9.82121 21.1602 9.61366 21.1602Z" fill="#FDB713"/>
<path d="M13.5004 21.1602H11.4123C11.2047 21.1602 11.0366 20.9921 11.0366 20.7846V18.6965C11.0366 18.4889 11.2047 18.3208 11.4123 18.3208H13.5004C13.7079 18.3208 13.8761 18.4889 13.8761 18.6965V20.7846C13.8761 20.9921 13.7079 21.1602 13.5004 21.1602Z" fill="#FDB713"/>
<path d="M17.4603 26.0667H15.3723C15.1647 26.0667 14.9966 25.8986 14.9966 25.691V23.603C14.9966 23.3954 15.1647 23.2273 15.3723 23.2273H17.4603C17.6679 23.2273 17.8363 23.3954 17.8363 23.603V25.691C17.8363 25.8986 17.6679 26.0667 17.4603 26.0667Z" fill="#FDB713"/>
<path d="M21.3466 26.0667H19.2585C19.0509 26.0667 18.8828 25.8986 18.8828 25.691V23.603C18.8828 23.3954 19.0509 23.2273 19.2585 23.2273H21.3466C21.5541 23.2273 21.7222 23.3954 21.7222 23.603V25.691C21.7222 25.8986 21.5541 26.0667 21.3466 26.0667Z" fill="#FDB713"/>
<path d="M9.61366 26.0667H7.52558C7.31803 26.0667 7.1499 25.8986 7.1499 25.691V23.603C7.1499 23.3954 7.31803 23.2273 7.52558 23.2273H9.61366C9.82121 23.2273 9.98957 23.3954 9.98957 23.603V25.691C9.98957 25.8986 9.82121 26.0667 9.61366 26.0667Z" fill="#FDB713"/>
<path d="M13.5004 26.0667H11.4123C11.2047 26.0667 11.0366 25.8986 11.0366 25.691V23.603C11.0366 23.3954 11.2047 23.2273 11.4123 23.2273H13.5004C13.7079 23.2273 13.8761 23.3954 13.8761 23.603V25.691C13.8761 25.8986 13.7079 26.0667 13.5004 26.0667Z" fill="#FDB713"/>
<path d="M25.2328 21.1602H23.1447C22.9372 21.1602 22.769 20.9921 22.769 20.7846V18.6965C22.769 18.4889 22.9372 18.3208 23.1447 18.3208H25.2328C25.4404 18.3208 25.6087 18.4889 25.6087 18.6965V20.7846C25.6087 20.9921 25.4404 21.1602 25.2328 21.1602Z" fill="#FDB713"/>
<path fill-rule="evenodd" clip-rule="evenodd" d="M11.4253 13.8546V13.189C11.4253 12.3684 10.7583 11.7014 9.93818 11.7014H8.27278C7.84775 11.7014 7.50206 11.3559 7.50206 10.9306V10.2652C7.50206 9.83996 7.84775 9.49451 8.27278 9.49451H9.93818C10.3632 9.49451 10.7089 9.83996 10.7089 10.2652C10.7089 10.4631 10.869 10.6232 11.0671 10.6232C11.2652 10.6232 11.4253 10.4631 11.4253 10.2652C11.4253 9.44516 10.7583 8.7781 9.93818 8.7781H9.46357V7.98589C9.46357 7.78802 9.30324 7.62769 9.10536 7.62769C8.90725 7.62769 8.74716 7.78802 8.74716 7.98589V8.7781H8.27278C7.4527 8.7781 6.78564 9.44516 6.78564 10.2652V10.9306C6.78564 11.7507 7.4527 12.4178 8.27278 12.4178H9.93818C10.3632 12.4178 10.7089 12.7639 10.7089 13.189V13.8546C10.7089 14.2796 10.3632 14.6253 9.93818 14.6253H8.27278C7.84775 14.6253 7.50206 14.2796 7.50206 13.8546C7.50206 13.6567 7.34196 13.4964 7.14385 13.4964C6.94574 13.4964 6.78564 13.6567 6.78564 13.8546C6.78564 14.6744 7.4527 15.3417 8.27278 15.3417H8.74716V16.1332C8.74716 16.3313 8.90725 16.4917 9.10536 16.4917C9.30324 16.4917 9.46357 16.3313 9.46357 16.1332V15.3417H9.93818C10.7583 15.3417 11.4253 14.6744 11.4253 13.8546Z" fill="#0A0B0C"/>
<path fill-rule="evenodd" clip-rule="evenodd" d="M27.8073 26.508C27.8073 27.1916 27.2512 27.7477 26.5676 27.7477H5.31612C4.63253 27.7477 4.07645 27.1916 4.07645 26.508V6.67166C4.07645 5.98808 4.63253 5.432 5.31612 5.432H6.78554V6.43932C6.78554 6.63625 6.9454 6.7961 7.14233 6.7961C7.33926 6.7961 7.49888 6.63625 7.49888 6.43932V5.432H8.74091V6.43932C8.74091 6.63625 8.90077 6.7961 9.0977 6.7961C9.29463 6.7961 9.45449 6.63625 9.45449 6.43932V5.432H10.6965V6.43932C10.6965 6.63625 10.8561 6.7961 11.0533 6.7961C11.2502 6.7961 11.4099 6.63625 11.4099 6.43932V5.432H12.6519V6.43932C12.6519 6.63625 12.8115 6.7961 13.0084 6.7961C13.2056 6.7961 13.3652 6.63625 13.3652 6.43932V5.432H14.6075V6.43932C14.6075 6.63625 14.7671 6.7961 14.9641 6.7961C15.161 6.7961 15.3208 6.63625 15.3208 6.43932V5.432H16.5626V6.43932C16.5626 6.63625 16.7225 6.7961 16.9194 6.7961C17.1164 6.7961 17.2762 6.63625 17.2762 6.43932V5.432H18.5182V6.43932C18.5182 6.63625 18.6779 6.7961 18.875 6.7961C19.072 6.7961 19.2318 6.63625 19.2318 6.43932V5.432H20.4736V6.43932C20.4736 6.63625 20.6332 6.7961 20.8304 6.7961C21.0273 6.7961 21.1872 6.63625 21.1872 6.43932V5.432H22.4292V6.43932C22.4292 6.63625 22.5888 6.7961 22.7858 6.7961C22.9829 6.7961 23.1426 6.63625 23.1426 6.43932V5.432H24.3848V6.43932C24.3848 6.63625 24.5445 6.7961 24.7414 6.7961C24.9383 6.7961 25.0982 6.63625 25.0982 6.43932V5.432H26.5676C27.2512 5.432 27.8073 5.98808 27.8073 6.67166V26.508ZM26.5676 4.60555H25.0982V3.85679C25.0982 3.65962 24.9383 3.5 24.7414 3.5C24.5445 3.5 24.3848 3.65962 24.3848 3.85679V4.60555H23.1426V3.85679C23.1426 3.65962 22.9829 3.5 22.7858 3.5C22.5888 3.5 22.4292 3.65962 22.4292 3.85679V4.60555H21.1872V3.85679C21.1872 3.65962 21.0273 3.5 20.8304 3.5C20.6332 3.5 20.4736 3.65962 20.4736 3.85679V4.60555H19.2318V3.85679C19.2318 3.65962 19.072 3.5 18.875 3.5C18.6779 3.5 18.5182 3.65962 18.5182 3.85679V4.60555H17.2762V3.85679C17.2762 3.65962 17.1164 3.5 16.9194 3.5C16.7225 3.5 16.5626 3.65962 16.5626 3.85679V4.60555H15.3208V3.85679C15.3208 3.65962 15.161 3.5 14.964 3.5C14.7671 3.5 14.6075 3.65962 14.6075 3.85679V4.60555H13.3652V3.85679C13.3652 3.65962 13.2056 3.5 13.0084 3.5C12.8115 3.5 12.6519 3.65962 12.6519 3.85679V4.60555H11.4099V3.85679C11.4099 3.65962 11.2502 3.5 11.0533 3.5C10.8561 3.5 10.6965 3.65962 10.6965 3.85679V4.60555H9.45449V3.85679C9.45449 3.65962 9.29463 3.5 9.0977 3.5C8.90077 3.5 8.74091 3.65962 8.74091 3.85679V4.60555H7.49888V3.85679C7.49888 3.65962 7.33926 3.5 7.14233 3.5C6.9454 3.5 6.78554 3.65962 6.78554 3.85679V4.60555H5.31612C4.1768 4.60555 3.25 5.53235 3.25 6.67166V26.508C3.25 27.6473 4.1768 28.5741 5.31612 28.5741H26.5676C27.7069 28.5741 28.6337 27.6473 28.6337 26.508V6.67166C28.6337 5.53235 27.7069 4.60555 26.5676 4.60555Z" fill="#0A0B0C"/>
<path fill-rule="evenodd" clip-rule="evenodd" d="M16.6179 14.5902H15.2811V13.2534H16.6179V14.5902ZM16.9935 12.5021H14.9055C14.6981 12.5021 14.5298 12.6702 14.5298 12.878V14.9661C14.5298 15.1734 14.6981 15.3417 14.9055 15.3417H16.9935C17.2011 15.3417 17.3695 15.1734 17.3695 14.9661V12.878C17.3695 12.6702 17.2011 12.5021 16.9935 12.5021Z" fill="#0A0B0C"/>
<path fill-rule="evenodd" clip-rule="evenodd" d="M24.3542 14.5902H23.0175V13.2534H24.3542V14.5902ZM24.7299 12.5021H22.6418C22.4345 12.5021 22.2661 12.6702 22.2661 12.878V14.9661C22.2661 15.1734 22.4345 15.3417 22.6418 15.3417H24.7299C24.9374 15.3417 25.1058 15.1734 25.1058 14.9661V12.878C25.1058 12.6702 24.9374 12.5021 24.7299 12.5021Z" fill="#0A0B0C"/>
<path fill-rule="evenodd" clip-rule="evenodd" d="M20.614 14.5902H19.2772V13.2534H20.614V14.5902ZM20.9896 12.5021H18.9016C18.694 12.5021 18.5259 12.6702 18.5259 12.878V14.9661C18.5259 15.1734 18.694 15.3417 18.9016 15.3417H20.9896C21.197 15.3417 21.3653 15.1734 21.3653 14.9661V12.878C21.3653 12.6702 21.197 12.5021 20.9896 12.5021Z" fill="#0A0B0C"/>
<path fill-rule="evenodd" clip-rule="evenodd" d="M24.3542 19.9166H23.0175V18.5798H24.3542V19.9166ZM24.7299 17.8285H22.6418C22.4345 17.8285 22.2661 17.9966 22.2661 18.2042V20.2922C22.2661 20.4998 22.4345 20.6679 22.6418 20.6679H24.7299C24.9374 20.6679 25.1058 20.4998 25.1058 20.2922V18.2042C25.1058 17.9966 24.9374 17.8285 24.7299 17.8285Z" fill="#0A0B0C"/>
<path fill-rule="evenodd" clip-rule="evenodd" d="M20.486 19.9166H19.1493V18.5798H20.486V19.9166ZM20.8617 17.8285H18.7736C18.5663 17.8285 18.3979 17.9966 18.3979 18.2042V20.2922C18.3979 20.4998 18.5663 20.6679 18.7736 20.6679H20.8617C21.0693 20.6679 21.2376 20.4998 21.2376 20.2922V18.2042C21.2376 17.9966 21.0693 17.8285 20.8617 17.8285Z" fill="#0A0B0C"/>
<path fill-rule="evenodd" clip-rule="evenodd" d="M16.6179 19.9166H15.2811V18.5798H16.6179V19.9166ZM16.9935 17.8285H14.9055C14.6981 17.8285 14.5298 17.9966 14.5298 18.2042V20.2922C14.5298 20.4998 14.6981 20.6679 14.9055 20.6679H16.9935C17.2011 20.6679 17.3695 20.4998 17.3695 20.2922V18.2042C17.3695 17.9966 17.2011 17.8285 16.9935 17.8285Z" fill="#0A0B0C"/>
<path fill-rule="evenodd" clip-rule="evenodd" d="M12.7497 19.9166H11.413V18.5798H12.7497V19.9166ZM13.1254 17.8285H11.0373C10.83 17.8285 10.6616 17.9966 10.6616 18.2042V20.2922C10.6616 20.4998 10.83 20.6679 11.0373 20.6679H13.1254C13.3329 20.6679 13.5013 20.4998 13.5013 20.2922V18.2042C13.5013 17.9966 13.3329 17.8285 13.1254 17.8285Z" fill="#0A0B0C"/>
<path fill-rule="evenodd" clip-rule="evenodd" d="M8.88153 19.9166H7.54482V18.5798H8.88153V19.9166ZM9.25721 17.8285H7.16914C6.96182 17.8285 6.79346 17.9966 6.79346 18.2042V20.2922C6.79346 20.4998 6.96182 20.6679 7.16914 20.6679H9.25721C9.46477 20.6679 9.63313 20.4998 9.63313 20.2922V18.2042C9.63313 17.9966 9.46477 17.8285 9.25721 17.8285Z" fill="#0A0B0C"/>
<path fill-rule="evenodd" clip-rule="evenodd" d="M20.486 24.8856H19.1493V23.5488H20.486V24.8856ZM20.8617 22.7975H18.7736C18.5663 22.7975 18.3979 22.9656 18.3979 23.1732V25.2612C18.3979 25.4688 18.5663 25.6369 18.7736 25.6369H20.8617C21.0693 25.6369 21.2376 25.4688 21.2376 25.2612V23.1732C21.2376 22.9656 21.0693 22.7975 20.8617 22.7975Z" fill="#0A0B0C"/>
<path fill-rule="evenodd" clip-rule="evenodd" d="M16.6179 24.8856H15.2811V23.5488H16.6179V24.8856ZM16.9935 22.7975H14.9055C14.6981 22.7975 14.5298 22.9656 14.5298 23.1732V25.2612C14.5298 25.4688 14.6981 25.6369 14.9055 25.6369H16.9935C17.2011 25.6369 17.3695 25.4688 17.3695 25.2612V23.1732C17.3695 22.9656 17.2011 22.7975 16.9935 22.7975Z" fill="#0A0B0C"/>
<path fill-rule="evenodd" clip-rule="evenodd" d="M12.7497 24.8856H11.413V23.5488H12.7497V24.8856ZM13.1254 22.7975H11.0373C10.83 22.7975 10.6616 22.9656 10.6616 23.1732V25.2612C10.6616 25.4688 10.83 25.6369 11.0373 25.6369H13.1254C13.3329 25.6369 13.5013 25.4688 13.5013 25.2612V23.1732C13.5013 22.9656 13.3329 22.7975 13.1254 22.7975Z" fill="#0A0B0C"/>
<path fill-rule="evenodd" clip-rule="evenodd" d="M8.88153 24.8856H7.54482V23.5488H8.88153V24.8856ZM9.25721 22.7975H7.16914C6.96182 22.7975 6.79346 22.9656 6.79346 23.1732V25.2612C6.79346 25.4688 6.96182 25.6369 7.16914 25.6369H9.25721C9.46477 25.6369 9.63313 25.4688 9.63313 25.2612V23.1732C9.63313 22.9656 9.46477 22.7975 9.25721 22.7975Z" fill="#0A0B0C"/>
</svg>
