<svg width="32" height="32" viewBox="0 0 32 32" fill="none" xmlns="http://www.w3.org/2000/svg">
<path d="M16.5452 24.8021C16.4439 24.8021 16.3428 24.7648 16.2639 24.6904C16.007 24.4479 9.97656 18.6764 9.97656 11.7289C9.97656 7.22567 12.4323 4.5376 16.5452 4.5376C20.658 4.5376 23.1133 7.22567 23.1133 11.7289C23.1133 18.6764 17.0831 24.4479 16.8264 24.6904C16.7475 24.7648 16.6462 24.8021 16.5452 24.8021Z" fill="#FDB713"/>
<path d="M16.2369 29.0152C10.2914 29.0152 3.97266 27.798 3.97266 25.5423C3.97266 23.2367 10.112 22.4544 11.9939 22.2696C12.218 22.2464 12.4048 22.4072 12.4258 22.6242C12.447 22.8415 12.2884 23.0351 12.0711 23.0563C7.32425 23.5224 4.76298 24.6849 4.76298 25.5423C4.76298 26.6625 9.12826 28.2249 16.2369 28.2249C23.3453 28.2249 27.7103 26.6625 27.7103 25.5423C27.7103 24.6894 25.1644 23.5298 20.4463 23.0606C20.2293 23.0391 20.0706 22.8455 20.0921 22.6282C20.1141 22.4112 20.3117 22.253 20.5245 22.274C22.3956 22.4601 28.5006 23.2455 28.5006 25.5423C28.5006 27.798 22.1821 29.0152 16.2369 29.0152Z" fill="#FDB713"/>
<path fill-rule="evenodd" clip-rule="evenodd" d="M15.7643 3.89847C10.0724 3.89847 9.45755 8.78678 9.45755 10.8883C9.45755 17.205 14.4585 22.792 15.7643 24.1429C17.0701 22.792 22.0705 17.205 22.0705 10.8883C22.0705 8.78678 21.4561 3.89847 15.7643 3.89847ZM15.7643 25.2288C15.6531 25.2288 15.5423 25.188 15.4559 25.1063C15.174 24.8404 8.55908 18.5093 8.55908 10.8883C8.55908 5.94852 11.2526 3 15.7643 3C20.276 3 22.969 5.94852 22.969 10.8883C22.969 18.5093 16.3544 24.8404 16.0727 25.1063C15.9862 25.188 15.8753 25.2288 15.7643 25.2288Z" fill="#0A0B0C"/>
<path fill-rule="evenodd" clip-rule="evenodd" d="M15.7642 28.3065C9.81877 28.3065 3.5 27.0893 3.5 24.8335C3.5 22.528 9.63932 21.7457 11.5213 21.5608C11.7453 21.5377 11.9321 21.6985 11.9531 21.9155C11.9744 22.1327 11.8157 22.3263 11.5985 22.3476C6.85159 22.8137 4.29032 23.9762 4.29032 24.8335C4.29032 25.9537 8.65561 27.5162 15.7642 27.5162C22.8726 27.5162 27.2377 25.9537 27.2377 24.8335C27.2377 23.9806 24.6917 22.821 19.9737 22.3518C19.7567 22.3303 19.598 22.1367 19.6195 21.9195C19.6414 21.7025 19.8391 21.5443 20.0518 21.5653C21.9229 21.7514 28.028 22.5367 28.028 24.8335C28.028 27.0893 21.7094 28.3065 15.7642 28.3065Z" fill="#0A0B0C"/>
<path fill-rule="evenodd" clip-rule="evenodd" d="M15.7638 6.32547C13.5091 6.32547 11.6746 8.15994 11.6746 10.4145C11.6746 12.6695 13.5091 14.504 15.7638 14.504C18.0186 14.504 19.8531 12.6695 19.8531 10.4145C19.8531 8.15994 18.0186 6.32547 15.7638 6.32547ZM15.7638 15.3304C13.0533 15.3304 10.8481 13.1252 10.8481 10.4145C10.8481 7.70422 13.0533 5.49902 15.7638 5.49902C18.4744 5.49902 20.6795 7.70422 20.6795 10.4145C20.6795 13.1252 18.4744 15.3304 15.7638 15.3304Z" fill="#0A0B0C"/>
<path fill-rule="evenodd" clip-rule="evenodd" d="M15.4525 9.23389C15.2853 9.23389 15.1738 9.52905 15.1738 9.82421V12.7758C15.1738 13.13 15.2853 13.3661 15.4525 13.3661C15.6198 13.3661 15.7313 13.13 15.7313 12.7758V9.82421C15.7313 9.52905 15.6198 9.23389 15.4525 9.23389Z" fill="#0A0B0C"/>
<path fill-rule="evenodd" clip-rule="evenodd" d="M16.3545 8.36484C16.3545 8.5188 16.2297 8.64355 16.0758 8.64355C15.9218 8.64355 15.7971 8.5188 15.7971 8.36484C15.7971 8.21088 15.9218 8.08612 16.0758 8.08612C16.2297 8.08612 16.3545 8.21088 16.3545 8.36484Z" fill="#0A0B0C"/>
</svg>
